<svg width="29" height="29" viewBox="0 0 29 29" fill="none" xmlns="http://www.w3.org/2000/svg">
<path d="M5.83222 12.5506C8.15222 17.11 11.89 20.8317 16.4494 23.1678L19.9939 19.6233C20.4289 19.1883 21.0733 19.0433 21.6372 19.2367C23.4417 19.8328 25.3911 20.155 27.3889 20.155C28.275 20.155 29 20.88 29 21.7661V27.3889C29 28.275 28.275 29 27.3889 29C12.2606 29 0 16.7394 0 1.61111C0 0.725 0.725 0 1.61111 0H7.25C8.13611 0 8.86111 0.725 8.86111 1.61111C8.86111 3.625 9.18333 5.55833 9.77944 7.36278C9.95667 7.92667 9.82778 8.555 9.37667 9.00611L5.83222 12.5506Z" fill="#F2F2F2"/>
</svg>
