<svg width="14" height="14" viewBox="0 0 14 14" fill="none" xmlns="http://www.w3.org/2000/svg">
<g clip-path="url(#clip0_30_309)">
<path d="M13.8787 13.248L9.69211 8.96875C10.5267 7.95703 10.944 6.79036 10.944 5.46875C10.944 4.47526 10.704 3.55924 10.2238 2.7207C9.74372 1.88216 9.08859 1.21908 8.25846 0.731445C7.42833 0.243815 6.52641 0 5.55269 0C4.57897 0 3.67929 0.243815 2.85365 0.731445C2.02801 1.21908 1.37513 1.88216 0.894997 2.7207C0.414869 3.55924 0.174805 4.47526 0.174805 5.46875C0.174805 6.46224 0.414869 7.37826 0.894997 8.2168C1.37513 9.05534 2.02801 9.71842 2.85365 10.2061C3.67929 10.6937 4.58122 10.9375 5.55942 10.9375C6.8966 10.9375 8.07224 10.4909 9.08634 9.59766L13.2594 13.8633C13.3492 13.9544 13.4524 14 13.569 14C13.6857 14 13.7867 13.9567 13.8719 13.8701C13.9572 13.7835 13.9998 13.6787 13.9998 13.5557C13.9998 13.4326 13.9594 13.3301 13.8787 13.248ZM5.55942 10.0762C4.73378 10.0762 3.9732 9.86882 3.27769 9.4541C2.58218 9.03939 2.0325 8.47884 1.62865 7.77246C1.2248 7.06608 1.02288 6.29818 1.02288 5.46875C1.02288 4.63932 1.2248 3.87142 1.62865 3.16504C2.0325 2.45866 2.58218 1.89811 3.27769 1.4834C3.9732 1.06868 4.73154 0.861328 5.55269 0.861328C6.37384 0.861328 7.13218 1.06868 7.82769 1.4834C8.5232 1.89811 9.07288 2.45866 9.47673 3.16504C9.88057 3.87142 10.0825 4.63932 10.0825 5.46875C10.0825 5.82422 10.0421 6.17513 9.96134 6.52148C9.88057 6.86784 9.76615 7.19141 9.61807 7.49219C9.47 7.79297 9.29275 8.0778 9.08634 8.34668C8.87993 8.61556 8.6466 8.85482 8.38634 9.06445C8.12609 9.27409 7.84788 9.4541 7.55173 9.60449C7.25557 9.75488 6.93698 9.87109 6.59596 9.95312C6.25493 10.0352 5.90942 10.0762 5.55942 10.0762Z" fill="#241400"/>
</g>
<defs>
<clipPath id="clip0_30_309">
<rect width="14" height="14" fill="white"/>
</clipPath>
</defs>
</svg>
